<svg xmlns="http://www.w3.org/2000/svg" viewBox="0 0 140 1" preserveAspectRatio="none" shape-rendering="crispEdges" role="img" aria-label="Warming stripes for Costa Rica, 1858 to 2020"><title>Warming stripes for Costa Rica, 1858 to 2020</title><rect x="0" y="0" width="1.02" height="1" fill="#2267ac"/><rect x="1" y="0" width="1.02" height="1" fill="#0e427a"/><rect x="2" y="0" width="1.02" height="1" fill="#053061"/><rect x="3" y="0" width="1.02" height="1" fill="#10457e"/><rect x="4" y="0" width="1.02" height="1" fill="#3682ba"/><rect x="5" y="0" width="1.02" height="1" fill="#144c88"/><rect x="6" y="0" width="1.02" height="1" fill="#195797"/><rect x="7" y="0" width="1.02" height="1" fill="#124a85"/><rect x="8" y="0" width="1.02" height="1" fill="#2b73b3"/><rect x="9" y="0" width="1.02" height="1" fill="#053061"/><rect x="10" y="0" width="1.02" height="1" fill="#3985bc"/><rect x="11" y="0" width="1.02" height="1" fill="#053061"/><rect x="12" y="0" width="1.02" height="1" fill="#0a396d"/><rect x="13" y="0" width="1.02" height="1" fill="#0f437b"/><rect x="14" y="0" width="1.02" height="1" fill="#3884bb"/><rect x="15" y="0" width="1.02" height="1" fill="#75b3d4"/><rect x="16" y="0" width="1.02" height="1" fill="#dceaf2"/><rect x="17" y="0" width="1.02" height="1" fill="#327cb7"/><rect x="18" y="0" width="1.02" height="1" fill="#73b2d4"/><rect x="19" y="0" width="1.02" height="1" fill="#9fcce2"/><rect x="20" y="0" width="1.02" height="1" fill="#1c5d9f"/><rect x="21" y="0" width="1.02" height="1" fill="#3c8abf"/><rect x="22" y="0" width="1.02" height="1" fill="#69abd0"/><rect x="23" y="0" width="1.02" height="1" fill="#124984"/><rect x="24" y="0" width="1.02" height="1" fill="#3d8cbf"/><rect x="25" y="0" width="1.02" height="1" fill="#2a71b2"/><rect x="26" y="0" width="1.02" height="1" fill="#2166ab"/><rect x="27" y="0" width="1.02" height="1" fill="#2469ae"/><rect x="28" y="0" width="1.02" height="1" fill="#307ab6"/><rect x="29" y="0" width="1.02" height="1" fill="#053061"/><rect x="30" y="0" width="1.02" height="1" fill="#286fb1"/><rect x="31" y="0" width="1.02" height="1" fill="#6daed1"/><rect x="32" y="0" width="1.02" height="1" fill="#10467f"/><rect x="33" y="0" width="1.02" height="1" fill="#60a5cd"/><rect x="34" y="0" width="1.02" height="1" fill="#d9e9f2"/><rect x="35" y="0" width="1.02" height="1" fill="#2b73b3"/><rect x="36" y="0" width="1.02" height="1" fill="#053061"/><rect x="37" y="0" width="1.02" height="1" fill="#2267ad"/><rect x="38" y="0" width="1.02" height="1" fill="#9bc9e0"/><rect x="39" y="0" width="1.02" height="1" fill="#9ccae1"/><rect x="40" y="0" width="1.02" height="1" fill="#87beda"/><rect x="41" y="0" width="1.02" height="1" fill="#94c6df"/><rect x="42" y="0" width="1.02" height="1" fill="#509bc7"/><rect x="43" y="0" width="1.02" height="1" fill="#4292c3"/><rect x="44" y="0" width="1.02" height="1" fill="#408fc1"/><rect x="45" y="0" width="1.02" height="1" fill="#dbeaf2"/><rect x="46" y="0" width="1.02" height="1" fill="#7bb7d6"/><rect x="47" y="0" width="1.02" height="1" fill="#93c6de"/><rect x="48" y="0" width="1.02" height="1" fill="#7db8d7"/><rect x="49" y="0" width="1.02" height="1" fill="#deebf2"/><rect x="50" y="0" width="1.02" height="1" fill="#d9e9f1"/><rect x="51" y="0" width="1.02" height="1" fill="#90c4dd"/><rect x="52" y="0" width="1.02" height="1" fill="#4292c3"/><rect x="53" y="0" width="1.02" height="1" fill="#94c6df"/><rect x="54" y="0" width="1.02" height="1" fill="#337eb8"/><rect x="55" y="0" width="1.02" height="1" fill="#a2cde3"/><rect x="56" y="0" width="1.02" height="1" fill="#78b5d5"/><rect x="57" y="0" width="1.02" height="1" fill="#124984"/><rect x="58" y="0" width="1.02" height="1" fill="#579fca"/><rect x="59" y="0" width="1.02" height="1" fill="#d8e8f1"/><rect x="60" y="0" width="1.02" height="1" fill="#f8bc9f"/><rect x="61" y="0" width="1.02" height="1" fill="#dbeaf2"/><rect x="62" y="0" width="1.02" height="1" fill="#65a9cf"/><rect x="63" y="0" width="1.02" height="1" fill="#4393c3"/><rect x="64" y="0" width="1.02" height="1" fill="#97c8e0"/><rect x="65" y="0" width="1.02" height="1" fill="#e8f0f4"/><rect x="66" y="0" width="1.02" height="1" fill="#ecf2f5"/><rect x="67" y="0" width="1.02" height="1" fill="#f1f4f6"/><rect x="68" y="0" width="1.02" height="1" fill="#3782bb"/><rect x="69" y="0" width="1.02" height="1" fill="#3986bc"/><rect x="70" y="0" width="1.02" height="1" fill="#f0f4f6"/><rect x="71" y="0" width="1.02" height="1" fill="#c8e0ed"/><rect x="72" y="0" width="1.02" height="1" fill="#e5eff4"/><rect x="73" y="0" width="1.02" height="1" fill="#99c8e0"/><rect x="74" y="0" width="1.02" height="1" fill="#4896c5"/><rect x="75" y="0" width="1.02" height="1" fill="#64a8ce"/><rect x="76" y="0" width="1.02" height="1" fill="#fdddca"/><rect x="77" y="0" width="1.02" height="1" fill="#f7b697"/><rect x="78" y="0" width="1.02" height="1" fill="#f7f7f7"/><rect x="79" y="0" width="1.02" height="1" fill="#e6eff4"/><rect x="80" y="0" width="1.02" height="1" fill="#c3deec"/><rect x="81" y="0" width="1.02" height="1" fill="#88bfdb"/><rect x="82" y="0" width="1.02" height="1" fill="#bddbea"/><rect x="83" y="0" width="1.02" height="1" fill="#87beda"/><rect x="84" y="0" width="1.02" height="1" fill="#c9e1ee"/><rect x="85" y="0" width="1.02" height="1" fill="#d4e6f1"/><rect x="86" y="0" width="1.02" height="1" fill="#62a7ce"/><rect x="87" y="0" width="1.02" height="1" fill="#61a6cd"/><rect x="88" y="0" width="1.02" height="1" fill="#e5eef4"/><rect x="89" y="0" width="1.02" height="1" fill="#67aacf"/><rect x="90" y="0" width="1.02" height="1" fill="#3e8cc0"/><rect x="91" y="0" width="1.02" height="1" fill="#f7f5f4"/><rect x="92" y="0" width="1.02" height="1" fill="#e5eef4"/><rect x="93" y="0" width="1.02" height="1" fill="#66a9cf"/><rect x="94" y="0" width="1.02" height="1" fill="#5aa2cb"/><rect x="95" y="0" width="1.02" height="1" fill="#dfecf3"/><rect x="96" y="0" width="1.02" height="1" fill="#fddac6"/><rect x="97" y="0" width="1.02" height="1" fill="#ecf2f5"/><rect x="98" y="0" width="1.02" height="1" fill="#e9f0f4"/><rect x="99" y="0" width="1.02" height="1" fill="#f7f7f7"/><rect x="100" y="0" width="1.02" height="1" fill="#acd2e6"/><rect x="101" y="0" width="1.02" height="1" fill="#f9ede6"/><rect x="102" y="0" width="1.02" height="1" fill="#ec9273"/><rect x="103" y="0" width="1.02" height="1" fill="#87beda"/><rect x="104" y="0" width="1.02" height="1" fill="#9bcae1"/><rect x="105" y="0" width="1.02" height="1" fill="#d8e9f1"/><rect x="106" y="0" width="1.02" height="1" fill="#d55d4c"/><rect x="107" y="0" width="1.02" height="1" fill="#e1ecf3"/><rect x="108" y="0" width="1.02" height="1" fill="#c3deec"/><rect x="109" y="0" width="1.02" height="1" fill="#fbe4d6"/><rect x="110" y="0" width="1.02" height="1" fill="#fbcfb7"/><rect x="111" y="0" width="1.02" height="1" fill="#fac9b0"/><rect x="112" y="0" width="1.02" height="1" fill="#fce0d0"/><rect x="113" y="0" width="1.02" height="1" fill="#f9c4a9"/><rect x="114" y="0" width="1.02" height="1" fill="#fcd8c3"/><rect x="115" y="0" width="1.02" height="1" fill="#d2e6f0"/><rect x="116" y="0" width="1.02" height="1" fill="#bf3237"/><rect x="117" y="0" width="1.02" height="1" fill="#940e26"/><rect x="118" y="0" width="1.02" height="1" fill="#c3deec"/><rect x="119" y="0" width="1.02" height="1" fill="#dae9f2"/><rect x="120" y="0" width="1.02" height="1" fill="#fce1d0"/><rect x="121" y="0" width="1.02" height="1" fill="#f19e7d"/><rect x="122" y="0" width="1.02" height="1" fill="#e37e64"/><rect x="123" y="0" width="1.02" height="1" fill="#ed9475"/><rect x="124" y="0" width="1.02" height="1" fill="#f8bea2"/><rect x="125" y="0" width="1.02" height="1" fill="#fddcc8"/><rect x="126" y="0" width="1.02" height="1" fill="#f7b495"/><rect x="127" y="0" width="1.02" height="1" fill="#e6eff4"/><rect x="128" y="0" width="1.02" height="1" fill="#eb8f71"/><rect x="129" y="0" width="1.02" height="1" fill="#faeae0"/><rect x="130" y="0" width="1.02" height="1" fill="#f0f4f6"/><rect x="131" y="0" width="1.02" height="1" fill="#facab2"/><rect x="132" y="0" width="1.02" height="1" fill="#f2a17f"/><rect x="133" y="0" width="1.02" height="1" fill="#d25749"/><rect x="134" y="0" width="1.02" height="1" fill="#67001f"/><rect x="135" y="0" width="1.02" height="1" fill="#bf3237"/><rect x="136" y="0" width="1.02" height="1" fill="#f4a582"/><rect x="137" y="0" width="1.02" height="1" fill="#ef9b7a"/><rect x="138" y="0" width="1.02" height="1" fill="#b2192b"/><rect x="139" y="0" width="1.02" height="1" fill="#b31b2c"/></svg>
